<svg height="499.312pt" viewBox="0 0 499.312 499.312" width="499.312pt" xmlns="http://www.w3.org/2000/svg"><path d="m446.054688 0c-14.222657 0-27.589844 5.535156-37.65625 15.601562l-106.742188 106.742188-1.097656 1.089844-23.039063 53.765625-24.609375 6.152343c-7.222656 1.808594-15.351562-.414062-20.664062-5.726562l-19.964844-19.96875c-8.679688-8.679688-20.695312-13.65625-32.96875-13.65625s-24.289062 4.976562-32.96875 13.65625l-18.34375 18.34375 8 8-136 136 179.3125 179.3125 136-136 8 8 18.34375-18.34375c8.679688-8.679688 13.65625-20.695312 13.65625-32.96875s-4.976562-24.289062-13.65625-32.96875l-19.96875-19.96875c-4.054688-4.054688-6.375-9.664062-6.375-15.398438 0-1.785156.214844-3.550781.648438-5.265624l6.152343-24.605469 53.765625-23.039063 107.832032-107.84375c10.066406-10.0625 15.601562-23.421875 15.601562-37.652344 0-29.371093-23.886719-53.257812-53.257812-53.257812zm-136.039063 142.015625 47.289063 47.289063-40.160157 17.214843-24.34375-24.34375zm-162.703125 53.296875 12.6875 12.6875-124.6875 124.6875-12.6875-12.6875zm-42.34375 138.34375 90.34375-90.34375 12.6875 12.6875-124.6875 124.6875-12.6875-12.6875 18.34375-18.34375-11.3125-11.3125-18.34375 18.34375-12.6875-12.6875 124.6875-124.6875 12.6875 12.6875-90.34375 90.34375zm151.03125-29.65625-124.6875 124.6875-12.6875-12.6875 124.6875-124.6875zm-148.6875 100.6875-12.6875-12.6875 124.6875-124.6875 12.6875 12.6875zm72 72-12.6875-12.6875 90.34375-90.34375-11.3125-11.3125-90.34375 90.34375-12.6875-12.6875 124.6875-124.6875 12.6875 12.6875-18.34375 18.34375 11.3125 11.3125 18.34375-18.34375 12.6875 12.6875zm151.03125-178.34375c5.703125 5.703125 8.96875 13.59375 8.96875 21.65625s-3.265625 15.953125-8.96875 21.65625l-7.03125 7.03125-172.6875-172.6875 7.03125-7.03125c5.703125-5.703125 13.589844-8.96875 21.65625-8.96875 8.0625 0 15.953125 3.265625 21.65625 8.96875l19.96875 19.96875c9.222656 9.214844 23.382812 13.085938 35.863281 9.925781l24.054688-6.007812 25.59375 25.59375-6.007813 24.039062c-.746094 2.992188-1.128906 6.070313-1.128906 9.175781 0 9.945313 4.03125 19.679688 11.0625 26.710938zm142.054688-218.742188-101.085938 101.078126-52.679688-52.679688 101.078126-101.089844c7.042968-7.039062 16.394531-10.910156 26.34375-10.910156 20.546874 0 37.257812 16.710938 37.257812 37.257812 0 9.949219-3.871094 19.300782-10.914062 26.34375zm0 0"/><path d="m443.3125 32c-13.234375 0-24 10.769531-24 24s10.765625 24 24 24c13.230469 0 24-10.769531 24-24s-10.769531-24-24-24zm0 32c-4.417969 0-8-3.585938-8-8s3.582031-8 8-8c4.414062 0 8 3.585938 8 8s-3.585938 8-8 8zm0 0"/></svg>