<svg height="502.624pt" viewBox="0 0 502.624 502.624" width="502.624pt" xmlns="http://www.w3.org/2000/svg"><path d="m502.625 155.3125-155.3125-155.3125-347.3125 347.3125 155.3125 155.3125 56.046875-56.050781c8.59375 8.089843 20.136719 12.738281 31.953125 12.738281 12.273438 0 24.289062-4.976562 32.96875-13.65625l169.375-169.375c8.808594-8.800781 13.65625-20.511719 13.65625-32.96875 0-11.992188-4.535156-23.273438-12.738281-31.953125zm-155.3125-132.6875 12.6875 12.6875-324.6875 324.6875-12.6875-12.6875zm-300.6875 348.6875 324.6875-324.6875 108.6875 108.6875-44.6875 44.6875-52.6875-52.6875 10.34375-10.34375-11.3125-11.3125-80 80 11.3125 11.3125 10.34375-10.34375 36.6875 36.6875c2.144531 2.136719 3.3125 4.976562 3.3125 8s-1.167969 5.863281-3.3125 8l-100.6875 100.679688c-4.28125 4.28125-11.71875 4.28125-16 0l-36.6875-36.679688 10.34375-10.34375-11.3125-11.3125-80 80 11.3125 11.3125 10.34375-10.34375 52.6875 52.6875-44.6875 44.6875zm387.71875-106.34375-169.375 169.375c-5.703125 5.695312-13.59375 8.96875-21.65625 8.96875-8.066406 0-15.953125-3.273438-21.65625-8.96875l-63.03125-63.03125 36.6875-36.6875 36.6875 36.6875c5.167969 5.160156 12.023438 8 19.3125 8s14.152344-2.839844 19.3125-8l100.6875-100.679688c5.160156-5.160156 8-12.015624 8-19.320312s-2.839844-14.160156-8-19.3125l-36.6875-36.6875 36.6875-36.6875 63.03125 63.03125c5.785156 5.785156 8.96875 13.480469 8.96875 21.65625s-3.183594 15.871094-8.96875 21.65625zm0 0"/></svg>