<svg height="499.312pt" viewBox="0 0 499.312 499.312" width="499.312pt" xmlns="http://www.w3.org/2000/svg"><path d="m434.742188 0c-17.238282 0-33.460938 6.71875-45.652344 18.910156l-97.777344 97.777344v23.433594c0 10.6875-4.167969 20.734375-11.71875 28.285156l-15.609375 15.617188c-83.433594.847656-161.746094 33.738281-220.839844 92.824218l-43.144531 43.152344 179.3125 179.3125 43.152344-43.152344c59.09375-59.089844 91.984375-137.390625 92.832031-220.832031l15.605469-15.617187c7.570312-7.550782 17.609375-11.710938 28.289062-11.710938h23.433594l97.773438-97.777344c12.195312-12.191406 18.914062-28.40625 18.914062-45.65625 0-35.597656-28.96875-64.566406-64.570312-64.566406zm-412.117188 320 12.6875-12.6875 156.6875 156.6875-12.6875 12.6875zm188.519531 124.847656-7.832031 7.839844-156.6875-156.6875 7.832031-7.832031c49.261719-49.257813 112.605469-79.304688 180.933594-86.457031.898437 33.929687 28.289063 61.3125 62.210937 62.210937-7.152343 68.335937-37.195312 131.671875-86.457031 180.925781zm257.945313-345.9375-93.089844 93.089844h-16.808594c-14.953125 0-29.015625 5.824219-39.597656 16.398438l-20.28125 20.289062v3.3125c0 5.351562-.160156 10.671875-.441406 15.976562-26.117188-.242187-47.304688-21.425781-47.542969-47.542968 5.3125-.273438 10.632813-.433594 15.984375-.433594h3.3125l20.277344-20.28125c10.578125-10.574219 16.410156-24.640625 16.410156-39.597656v-16.808594l93.085938-93.089844c9.167968-9.175781 21.378906-14.222656 34.34375-14.222656 26.777343 0 48.570312 21.792969 48.570312 48.566406 0 12.976563-5.054688 25.167969-14.222656 34.34375zm0 0"/><path d="m435.3125 32c-17.648438 0-32 14.351562-32 32s14.351562 32 32 32 32-14.351562 32-32-14.351562-32-32-32zm0 48c-8.824219 0-16-7.175781-16-16s7.175781-16 16-16 16 7.175781 16 16-7.175781 16-16 16zm0 0"/><path d="m378.34375 96c-6.574219 0-13.007812 2.664062-17.65625 7.3125l-30.0625 30.0625c-4.722656 4.714844-7.3125 10.984375-7.3125 17.65625 0 13.769531 11.199219 24.96875 24.96875 24.96875 6.574219 0 13.007812-2.664062 17.65625-7.3125l30.0625-30.0625c4.71875-4.714844 7.3125-10.984375 7.3125-17.65625 0-13.769531-11.199219-24.96875-24.96875-24.96875zm-30.0625 64c-4.945312 0-8.96875-4.023438-8.96875-8.96875 0-2.398438.925781-4.648438 2.625-6.34375l9.375-9.375 12.6875 12.6875-9.375 9.375c-1.671875 1.664062-3.984375 2.625-6.34375 2.625zm36.40625-32.6875-9.375 9.375-12.6875-12.6875 9.375-9.375c1.671875-1.664062 3.984375-2.625 6.34375-2.625 4.945312 0 8.96875 4.023438 8.96875 8.96875 0 2.398438-.929688 4.648438-2.625 6.34375zm0 0"/></svg>