<?xml version="1.0" encoding="utf-8"?><svg xmlns="http://www.w3.org/2000/svg" xmlns:xlink="http://www.w3.org/1999/xlink"><symbol viewBox="0 0 512 512" id="area" xmlns="http://www.w3.org/2000/svg"><path d="M53.333 0H10.667C4.779 0 0 4.779 0 10.667v42.667C0 59.221 4.779 64 10.667 64h42.667C59.221 64 64 59.221 64 53.333V10.667C64 4.779 59.221 0 53.333 0zm448 0h-42.667C452.779 0 448 4.779 448 10.667v42.667C448 59.221 452.779 64 458.667 64h42.667C507.221 64 512 59.221 512 53.333V10.667C512 4.779 507.221 0 501.333 0zm-448 448H10.667C4.779 448 0 452.779 0 458.667v42.667C0 507.221 4.779 512 10.667 512h42.667C59.221 512 64 507.221 64 501.333v-42.667C64 452.779 59.221 448 53.333 448zm448 0h-42.667c-5.888 0-10.667 4.779-10.667 10.667v42.667c0 5.888 4.779 10.667 10.667 10.667h42.667c5.888 0 10.667-4.779 10.667-10.667v-42.667c0-5.888-4.779-10.667-10.667-10.667z"/><path d="M32 42.667c-5.888 0-10.667 4.779-10.667 10.667v405.333c0 5.888 4.779 10.667 10.667 10.667s10.667-4.779 10.667-10.667V53.333c0-5.888-4.779-10.666-10.667-10.666zm426.667-21.334H53.333c-5.888 0-10.667 4.779-10.667 10.667s4.779 10.667 10.667 10.667h405.333c5.888 0 10.667-4.779 10.667-10.667s-4.778-10.667-10.666-10.667zM480 42.667c-5.888 0-10.667 4.779-10.667 10.667v405.333c0 5.888 4.779 10.667 10.667 10.667s10.667-4.779 10.667-10.667V53.333c0-5.888-4.779-10.666-10.667-10.666zm-21.333 426.666H53.333c-5.888 0-10.667 4.779-10.667 10.667s4.779 10.667 10.667 10.667h405.333c5.888 0 10.667-4.779 10.667-10.667s-4.778-10.667-10.666-10.667z"/></symbol><symbol viewBox="0 0 31.5 31.5" id="arrow-down" xmlns="http://www.w3.org/2000/svg"><path d="M5 21.2c-.4-.4-.4-1.1 0-1.6.4-.4 1.1-.4 1.6 0l8 8V1.1c0-.6.5-1.1 1.1-1.1s1.1.5 1.1 1.1v26.6l8-8c.4-.4 1.2-.4 1.6 0 .4.4.4 1.1 0 1.6l-10 10c-.4.4-1.1.4-1.6 0L5 21.2z"/></symbol><symbol viewBox="0 0 441.6 441.6" id="builder" xmlns="http://www.w3.org/2000/svg"><path d="M285.2 282.4c26.4-19.2 42.4-49.6 42.4-81.6 0-14.4-.8-26.4-2.4-36.8h19.2c4.8 0 8.8-4 8.8-8.8v-38.4c0-4.8-4-8.8-8.8-8.8h-15.2c-8-40-37.6-72.8-76.8-84V8.8c0-4.8-4-8.8-8.8-8.8h-44c-4.8 0-8.8 4-8.8 8.8V24C151.6 35.2 122 68 114 108H98.8c-4.8 0-8.8 4-8.8 8.8v38.4c0 4.8 4 8.8 8.8 8.8h18.4c-1.6 10.4-2.4 23.2-2.4 36.8 0 32 16 62.4 42.4 81.6-64.8 24.8-108.8 84-108.8 150.4 0 4.8 4 8.8 8.8 8.8h327.2c4.8 0 8.8-4 8.8-8.8 0-66.4-44-125.6-108-150.4zm-178.4-136v-20h14.4c2.4 0 4-.8 5.6-2.4.8-.8 2.4-3.2 3.2-5.6 4-34.4 28-63.2 60-75.2v56c0 4.8 4 8.8 8.8 8.8 4.8 0 8.8-4 8.8-8.8V17.6H234v80.8c0 4.8 4 8.8 8.8 8.8s8.8-4 8.8-8.8V43.2c32 12 56 40.8 60 75.2 0 2.4 1.6 4.8 3.2 5.6 3.2 2.4 4.8 2.4 6.4 2.4h14.4v20H106.8zm-40 276.8c4.8-60.8 50.4-113.6 114.4-129.6 4-.8 6.4-4 7.2-8 0-4-1.6-7.2-5.6-8.8-30.4-14.4-49.6-43.2-49.6-76 0-14.4.8-26.4 2.4-36.8h171.2c1.6 10.4 2.4 22.4 2.4 36.8 0 32.8-19.2 61.6-49.6 76-3.2 1.6-5.6 5.6-5.6 8.8 0 4 3.2 7.2 7.2 8 64 16 110.4 68.8 114.4 129.6H66.8z"/></symbol><symbol viewBox="0 0 344.96 344.96" id="check" xmlns="http://www.w3.org/2000/svg"><g data-name="Слой 2"><path d="M321.85 86.24l-40-23.11-23.1-40H212.5L172.48 0l-40 23.11H86.24l-23.11 40-40 23.1v46.21L0 172.48l23.11 40v46.21l40 23.11 23.11 40h46.21l40 23.1 40-23.11h46.21l23.11-40 40-23.11V212.5l23.11-40-23.11-40V86.24zM156.91 243.07a16.79 16.79 0 01-23.34 0l-50.45-50.44a16.19 16.19 0 010-22.89l13.35-13.35a16.19 16.19 0 0122.89 0l25.87 25.87 80.34-80.35a16.19 16.19 0 0122.89 0l13.35 13.35a16.19 16.19 0 010 22.89z" data-name="Capa 1"/></g></symbol><symbol viewBox="0 0 433.6 433.6" id="event" xmlns="http://www.w3.org/2000/svg"><path d="M388.7 47h-36.1V18.3c0-11.5-11-18.3-22.5-18.3h-30.8c-11.5 0-19.9 6.8-19.9 18.3V47H154.1V18.3c0-11.5-8.4-18.3-19.9-18.3h-30.8C92 0 81 6.8 81 18.3V47H47.5C26.2 46.4 8.4 63.2 7.8 84.6v304.7c0 23 16.7 44.4 39.7 44.4H386c23 0 39.7-21.4 39.7-44.4v-302c1-21.4-15.6-39.4-37-40.3zm-89.3-26.1h32.4v57.5h-32.4V20.9zm-196 0h29.8v57.5h-29.8V20.9zm301.5 368.3c0 11.5-7.3 23.5-18.8 23.5H47.5c-11.5 0-18.8-12-18.8-23.5v-222h376.2v222zm0-302v59H28.7v-59c-.9-9.8 6.3-18.4 16.1-19.3.9-.1 1.8-.1 2.7 0H81v11.5c0 11.5 11 19.9 22.5 19.9h30.8c10.7.3 19.6-8.1 19.9-18.8V67.9h125.4v11.5c-.3 10.7 8.1 19.6 18.8 19.9h31.9c11.5 0 22.5-8.4 22.5-19.9V67.9h33.4c9.8-.6 18.2 6.8 18.8 16.6 0 .9 0 1.8-.1 2.7z"/></symbol><symbol viewBox="0 0 512 512" id="fb" xmlns="http://www.w3.org/2000/svg"><path d="M384 .1L317.6 0C243 0 194.8 49.5 194.8 126v58.1H128c-5.8 0-10.4 4.7-10.4 10.4v84.2c0 5.8 4.7 10.4 10.4 10.4h66.8v212.4c0 5.8 4.7 10.4 10.4 10.4h87.1c5.8 0 10.4-4.7 10.4-10.4V289.2h78.1c5.8 0 10.4-4.7 10.4-10.4v-84.2c0-2.8-1.1-5.4-3.1-7.4s-4.6-3.1-7.4-3.1h-78.1v-49.2c0-23.7 5.6-35.7 36.5-35.7h44.7c5.8 0 10.4-4.7 10.4-10.4V10.5C394.4 4.8 389.7.1 384 .1z"/></symbol><symbol viewBox="0 0 512 512" id="instagram" xmlns="http://www.w3.org/2000/svg"><path d="M256 49.5c67.3 0 75.2.3 101.8 1.5 24.6 1.1 37.9 5.2 46.8 8.7 10.9 4 20.8 10.5 29 18.8 8.4 8.1 14.8 18 18.8 29 3.5 8.9 7.6 22.2 8.7 46.8 1.2 26.6 1.5 34.5 1.5 101.8s-.3 75.2-1.5 101.8c-1.1 24.6-5.2 37.9-8.7 46.8-8.5 22-25.8 39.3-47.8 47.8-8.9 3.5-22.2 7.6-46.8 8.7-26.6 1.2-34.5 1.5-101.8 1.5s-75.2-.3-101.8-1.5c-24.6-1.1-37.9-5.2-46.8-8.7-10.9-4-20.8-10.5-29-18.8-8.4-8.1-14.8-18-18.8-29-3.5-8.9-7.6-22.2-8.7-46.8-1.2-26.6-1.5-34.5-1.5-101.8s.3-75.2 1.5-101.8c1.1-24.6 5.2-37.9 8.7-46.8 4-10.9 10.5-20.8 18.8-29 8.1-8.4 18-14.8 29-18.8 8.9-3.5 22.2-7.6 46.8-8.7 26.6-1.3 34.5-1.5 101.8-1.5m0-45.4c-68.4 0-77 .3-103.9 1.5C125.3 6.8 107 11.1 91 17.3c-16.8 6.3-32 16.2-44.6 29.1C33.5 58.9 23.6 74.2 17.3 91c-6.2 16-10.5 34.3-11.7 61.2C4.4 179 4.1 187.6 4.1 256s.3 77 1.5 103.9c1.2 26.8 5.5 45.1 11.7 61.2 6.3 16.8 16.2 32 29.1 44.6 12.6 12.8 27.8 22.7 44.6 29 16 6.2 34.3 10.5 61.2 11.7 26.9 1.2 35.4 1.5 103.9 1.5s77-.3 103.9-1.5c26.8-1.2 45.1-5.5 61.2-11.7 33.8-13.1 60.6-39.8 73.7-73.7 6.2-16 10.5-34.3 11.7-61.2 1.2-26.9 1.5-35.4 1.5-103.9s-.3-77-1.5-103.9c-1.2-26.8-5.5-45.1-11.7-61.2-6.3-16.8-16.2-32-29.1-44.6-12.6-12.8-27.8-22.7-44.6-29.1-16-6.2-34.3-10.5-61.2-11.7-27-1-35.6-1.3-104-1.3z"/><path d="M256 126.6c-71.4 0-129.4 57.9-129.4 129.4s58 129.4 129.4 129.4 129.4-58 129.4-129.4-58-129.4-129.4-129.4zm0 213.4c-46.4 0-84-37.6-84-84s37.6-84 84-84 84 37.6 84 84-37.6 84-84 84z"/><circle cx="390.5" cy="121.5" r="30.2"/></symbol><symbol viewBox="0 0 31.494 31.494" id="left-arrow" xmlns="http://www.w3.org/2000/svg"><path d="M10.273 5.009a1.112 1.112 0 011.587 0 1.12 1.12 0 010 1.571l-8.047 8.047h26.554c.619 0 1.127.492 1.127 1.111s-.508 1.127-1.127 1.127H3.813l8.047 8.032c.429.444.429 1.159 0 1.587a1.112 1.112 0 01-1.587 0L.321 16.532a1.12 1.12 0 010-1.571l9.952-9.952z"/></symbol><symbol viewBox="0 0 512 512" id="pdf" xmlns="http://www.w3.org/2000/svg"><path d="M368 256h-64c-8.837 0-16 7.163-16 16v128c0 8.837 7.163 16 16 16h64c17.673 0 32-14.327 32-32v-96c0-17.673-14.327-32-32-32zm0 128h-48v-96h48v96zm144-96v-32h-80c-8.837 0-16 7.163-16 16v144h32v-64h64v-32h-64v-32h64z"/><path d="M32 464V48c0-8.837 7.163-16 16-16h240v64c0 17.673 14.327 32 32 32h64v48h32v-64a15.997 15.997 0 00-4.64-11.36l-96-96A16.001 16.001 0 00304 0H48C21.49 0 0 21.491 0 48v416c0 26.51 21.49 48 48 48h112v-32H48c-8.836 0-16-7.163-16-16z"/><path d="M240 256h-64c-8.837 0-16 7.163-16 16v144h32v-48h48c17.673 0 32-14.327 32-32v-48c0-17.673-14.327-32-32-32zm0 80h-48v-48h48v48z"/></symbol><symbol viewBox="0 0 473.806 473.806" id="phone-call" xmlns="http://www.w3.org/2000/svg"><path d="M374.456 293.506c-9.7-10.1-21.4-15.5-33.8-15.5-12.3 0-24.1 5.3-34.2 15.4l-31.6 31.5c-2.6-1.4-5.2-2.7-7.7-4-3.6-1.8-7-3.5-9.9-5.3-29.6-18.8-56.5-43.3-82.3-75-12.5-15.8-20.9-29.1-27-42.6 8.2-7.5 15.8-15.3 23.2-22.8 2.8-2.8 5.6-5.7 8.4-8.5 21-21 21-48.2 0-69.2l-27.3-27.3c-3.1-3.1-6.3-6.3-9.3-9.5-6-6.2-12.3-12.6-18.8-18.6-9.7-9.6-21.3-14.7-33.5-14.7s-24 5.1-34 14.7l-.2.2-34 34.3c-12.8 12.8-20.1 28.4-21.7 46.5-2.4 29.2 6.2 56.4 12.8 74.2 16.2 43.7 40.4 84.2 76.5 127.6 43.8 52.3 96.5 93.6 156.7 122.7 23 10.9 53.7 23.8 88 26 2.1.1 4.3.2 6.3.2 23.1 0 42.5-8.3 57.7-24.8.1-.2.3-.3.4-.5 5.2-6.3 11.2-12 17.5-18.1 4.3-4.1 8.7-8.4 13-12.9 9.9-10.3 15.1-22.3 15.1-34.6 0-12.4-5.3-24.3-15.4-34.3l-54.9-55.1zm35.8 105.3c-.1 0-.1.1 0 0-3.9 4.2-7.9 8-12.2 12.2-6.5 6.2-13.1 12.7-19.3 20-10.1 10.8-22 15.9-37.6 15.9-1.5 0-3.1 0-4.6-.1-29.7-1.9-57.3-13.5-78-23.4-56.6-27.4-106.3-66.3-147.6-115.6-34.1-41.1-56.9-79.1-72-119.9-9.3-24.9-12.7-44.3-11.2-62.6 1-11.7 5.5-21.4 13.8-29.7l34.1-34.1c4.9-4.6 10.1-7.1 15.2-7.1 6.3 0 11.4 3.8 14.6 7l.3.3c6.1 5.7 11.9 11.6 18 17.9 3.1 3.2 6.3 6.4 9.5 9.7l27.3 27.3c10.6 10.6 10.6 20.4 0 31-2.9 2.9-5.7 5.8-8.6 8.6-8.4 8.6-16.4 16.6-25.1 24.4-.2.2-.4.3-.5.5-8.6 8.6-7 17-5.2 22.7l.3.9c7.1 17.2 17.1 33.4 32.3 52.7l.1.1c27.6 34 56.7 60.5 88.8 80.8 4.1 2.6 8.3 4.7 12.3 6.7 3.6 1.8 7 3.5 9.9 5.3.4.2.8.5 1.2.7 3.4 1.7 6.6 2.5 9.9 2.5 8.3 0 13.5-5.2 15.2-6.9l34.2-34.2c3.4-3.4 8.8-7.5 15.1-7.5 6.2 0 11.3 3.9 14.4 7.3l.2.2 55.1 55.1c10.3 10.2 10.3 20.7.1 31.3zm-154.2-286.1c26.2 4.4 50 16.8 69 35.8s31.3 42.8 35.8 69c1.1 6.6 6.8 11.2 13.3 11.2.8 0 1.5-.1 2.3-.2 7.4-1.2 12.3-8.2 11.1-15.6-5.4-31.7-20.4-60.6-43.3-83.5s-51.8-37.9-83.5-43.3c-7.4-1.2-14.3 3.7-15.6 11s3.5 14.4 10.9 15.6zm217.2 96.3c-8.9-52.2-33.5-99.7-71.3-137.5s-85.3-62.4-137.5-71.3c-7.3-1.3-14.2 3.7-15.5 11-1.2 7.4 3.7 14.3 11.1 15.6 46.6 7.9 89.1 30 122.9 63.7 33.8 33.8 55.8 76.3 63.7 122.9 1.1 6.6 6.8 11.2 13.3 11.2.8 0 1.5-.1 2.3-.2 7.3-1.1 12.3-8.1 11-15.4z"/></symbol><symbol viewBox="0 0 548.4 548.4" id="vk" xmlns="http://www.w3.org/2000/svg"><path d="M545.5 400.3c-.7-1.4-1.3-2.6-1.9-3.6-9.5-17.1-27.7-38.2-54.5-63.1l-.6-.6-.3-.3-.3-.3h-.3c-12.2-11.6-19.9-19.4-23.1-23.4-5.9-7.6-7.2-15.3-4-23.1 2.3-5.9 10.9-18.4 25.7-37.4 7.8-10.1 14-18.2 18.6-24.3 32.9-43.8 47.2-71.8 42.8-83.9l-1.7-2.8c-1.1-1.7-4.1-3.3-8.8-4.7-4.8-1.4-10.9-1.7-18.3-.7l-82.2.6c-1.3-.5-3.2-.4-5.7.1-2.5.6-3.7.9-3.7.9l-1.4.7-1.1.9c-1 .6-2 1.6-3.1 3s-2.1 3.1-2.8 5c-9 23-19.1 44.4-30.6 64.2-7 11.8-13.5 22-19.4 30.7-5.9 8.7-10.8 15-14.8 19.1-4 4.1-7.6 7.4-10.9 9.8-3.2 2.5-5.7 3.5-7.4 3.1-1.7-.4-3.3-.8-4.9-1.1-2.7-1.7-4.8-4-6.4-7-1.6-3-2.7-6.7-3.3-11.1-.6-4.5-.9-8.3-1-11.6-.1-3.2 0-7.8.1-13.7.2-5.9.3-9.9.3-12 0-7.2.1-15.1.4-23.6.3-8.5.5-15.2.7-20.1.2-4.9.3-10.2.3-15.7s-.3-9.8-1-13c-.7-3.1-1.7-6.2-3-9.1-1.3-2.9-3.3-5.2-5.9-6.9-2.6-1.6-5.8-2.9-9.6-3.9-10.1-2.3-22.9-3.5-38.5-3.7-35.4-.4-58.1 1.9-68.2 6.9-4 2.1-7.6 4.9-10.8 8.6-3.4 4.2-3.9 6.5-1.4 6.9 11.4 1.7 19.5 5.8 24.3 12.3l1.7 3.4c1.3 2.5 2.7 6.9 4 13.1 1.3 6.3 2.2 13.2 2.6 20.8.9 13.9.9 25.8 0 35.7-1 9.9-1.9 17.6-2.7 23.1-.9 5.5-2.1 10-3.9 13.4-1.7 3.4-2.9 5.5-3.4 6.3-.6.8-1 1.2-1.4 1.4-2.5.9-5 1.4-7.7 1.4s-5.9-1.3-9.7-4c-3.8-2.7-7.8-6.3-11.8-11-4.1-4.7-8.7-11.2-13.9-19.6-5.1-8.4-10.5-18.3-16-29.7l-4.6-8.3c-2.9-5.3-6.8-13.1-11.7-23.3-5-10.2-9.3-20-13.1-29.6-1.5-4-3.8-7-6.9-9.1l-1.4-.9c-.9-.8-2.5-1.6-4.6-2.4-2.1-.9-4.3-1.5-6.6-1.9l-78.2.6c-8 0-13.4 1.8-16.3 5.4l-1.1 1.7c-.6 1-.9 2.5-.9 4.6 0 2.1.6 4.7 1.7 7.7 11.4 26.8 23.8 52.7 37.3 77.7s25.1 45 35 60.2c9.9 15.2 20 29.6 30.3 43.1s17.1 22.2 20.4 26c3.3 3.8 6 6.7 7.9 8.6l7.1 6.9c4.6 4.6 11.3 10 20.1 16.4 8.9 6.4 18.7 12.7 29.4 18.9 10.8 6.2 23.3 11.2 37.5 15.1 14.3 3.9 28.2 5.5 41.7 4.7h32.8c6.7-.6 11.7-2.7 15.1-6.3l1.1-1.4c.8-1.1 1.5-2.9 2.1-5.3.7-2.4 1-5 1-7.9-.2-8.2.4-15.6 1.9-22.1 1.4-6.6 3-11.5 4.9-14.8 1.8-3.3 3.9-6.1 6.1-8.4 2.3-2.3 3.9-3.7 4.9-4.1.9-.5 1.7-.8 2.3-1 4.6-1.5 9.9 0 16.1 4.4 6.2 4.5 12 10 17.4 16.6 5.4 6.6 11.9 13.9 19.6 22.1 7.6 8.2 14.3 14.3 20 18.3l5.7 3.4c3.8 2.3 8.8 4.4 14.9 6.3 6.1 1.9 11.4 2.4 16 1.4l73.1-1.1c7.2 0 12.9-1.2 16.8-3.6 4-2.4 6.4-5 7.1-7.9.8-2.9.8-6.1.1-9.7-.8-3.4-1.5-6-2.1-7.4z"/></symbol></svg>