<svg id="Capa_1" enable-background="new 0 0 511.718 511.718" height="512" viewBox="0 0 511.718 511.718" width="512" xmlns="http://www.w3.org/2000/svg"><path style="fill:#949698" d="m245.152 233.856-32.968-76.375-.399-.927-.521-.864c-4.939-8.205-13.224-13.579-22.73-14.742-9.505-1.163-18.843 2.053-25.613 8.825l-53.799 53.799c-6.771 6.771-9.988 16.107-8.825 25.613 1.163 9.507 6.537 17.791 14.742 22.73l.864.521 77.302 33.367c-.594 3.484-.92 7.057-.92 10.707s.326 7.224.92 10.707l-76.375 32.968-.927.399-.864.521c-8.205 4.939-13.579 13.224-14.742 22.73s2.054 18.842 8.825 25.613l53.799 53.799c5.861 5.861 13.642 9.059 21.793 9.059 1.266 0 2.542-.077 3.82-.233 9.507-1.163 17.791-6.537 22.73-14.742l.521-.864 33.367-77.302c3.484.594 7.057.92 10.707.92s7.224-.326 10.707-.92l32.968 76.375.399.927.521.864c4.939 8.205 13.224 13.579 22.73 14.742 1.278.156 2.554.233 3.82.233 8.15 0 15.933-3.197 21.793-9.059l53.799-53.799c6.771-6.771 9.988-16.107 8.825-25.613-1.163-9.507-6.537-17.791-14.742-22.73l-.864-.521-77.302-33.367c.594-3.484.92-7.057.92-10.707s-.326-7.224-.92-10.707l76.375-32.968.927-.399.864-.521c8.205-4.939 13.579-13.224 14.742-22.73s-2.054-18.842-8.825-25.613l-53.799-53.799c-6.771-6.771-16.104-9.993-25.613-8.825-9.507 1.163-17.791 6.537-22.73 14.742l-.521.864-33.367 77.302c-3.484-.594-7.057-.92-10.707-.92-3.65.001-7.224.327-10.707.92zm-114.944-7.92c-.062-.097-.112-.225-.133-.395-.055-.441.158-.653.26-.756l53.799-53.799c.102-.103.318-.326.756-.26.17.021.298.071.395.133l32.332 74.904c-4.724 3.569-8.935 7.78-12.504 12.504zm55.076 196.226c-.097.062-.225.112-.395.133-.438.061-.654-.158-.756-.26l-53.799-53.799c-.102-.103-.314-.314-.26-.756.021-.17.071-.298.133-.395l74.904-32.332c3.569 4.724 7.78 8.935 12.504 12.504zm196.226-55.076c.062.097.112.225.133.395.055.441-.158.653-.26.756l-53.799 53.799c-.103.102-.319.321-.756.26-.17-.021-.298-.071-.395-.133l-32.332-74.904c4.724-3.569 8.935-7.78 12.504-12.504zm-55.076-196.227c.097-.062.225-.112.395-.133.436-.066.653.157.756.26l53.799 53.799c.102.103.314.314.26.756-.021.17-.071.298-.133.395l-74.904 32.332c-3.569-4.724-7.78-8.935-12.504-12.504zm-37.001 125.652c0 18.513-15.062 33.574-33.574 33.574s-33.574-15.062-33.574-33.574 15.062-33.574 33.574-33.574 33.574 15.061 33.574 33.574z"/><path style="fill:#949698" d="m255.859 0-255.177 209.197 19.02 23.2 15.994-13.112v292.433h440.163v-292.566l16.157 13.246 19.02-23.2zm190 481.718h-380.163v-287.027l190.163-155.898 190 155.764z"/></svg>