<?xml version="1.0" encoding="iso-8859-1"?>
<!-- Generator: Adobe Illustrator 19.0.0, SVG Export Plug-In . SVG Version: 6.00 Build 0)  -->
<svg version="1.1" id="Capa_1" xmlns="http://www.w3.org/2000/svg" xmlns:xlink="http://www.w3.org/1999/xlink" x="0px" y="0px"
	 viewBox="0 0 441.6 441.6" style="enable-background:new 0 0 441.6 441.6;" xml:space="preserve">
<g>
	<g>
		<path d="M285.2,282.4c26.4-19.2,42.4-49.6,42.4-81.6c0-14.4-0.8-26.4-2.4-36.8h19.2c4.8,0,8.8-4,8.8-8.8v-38.4
			c0-4.8-4-8.8-8.8-8.8h-15.2c-8-40-37.6-72.8-76.8-84V8.8c0-4.8-4-8.8-8.8-8.8h-44c-4.8,0-8.8,4-8.8,8.8V24
			C151.6,35.2,122,68,114,108H98.8c-4.8,0-8.8,4-8.8,8.8v38.4c0,4.8,4,8.8,8.8,8.8h18.4c-1.6,10.4-2.4,23.2-2.4,36.8
			c0,32,16,62.4,42.4,81.6c-64.8,24.8-108.8,84-108.8,150.4c0,4.8,4,8.8,8.8,8.8h327.2c4.8,0,8.8-4,8.8-8.8
			C393.2,366.4,349.2,307.2,285.2,282.4z M106.8,146.4v-20h0h14.4c2.4,0,4-0.8,5.6-2.4c0.8-0.8,2.4-3.2,3.2-5.6
			c4-34.4,28-63.2,60-75.2v56c0,4.8,4,8.8,8.8,8.8c4.8,0,8.8-4,8.8-8.8V17.6H234v80.8c0,4.8,4,8.8,8.8,8.8s8.8-4,8.8-8.8V43.2
			c32,12,56,40.8,60,75.2c0,2.4,1.6,4.8,3.2,5.6c3.2,2.4,4.8,2.4,6.4,2.4h14.4v20h-20.8h-93.6h-93.6H106.8z M66.8,423.2
			c4.8-60.8,50.4-113.6,114.4-129.6c4-0.8,6.4-4,7.2-8c0-4-1.6-7.2-5.6-8.8c-30.4-14.4-49.6-43.2-49.6-76c0-14.4,0.8-26.4,2.4-36.8
			h85.6h85.6c1.6,10.4,2.4,22.4,2.4,36.8c0,32.8-19.2,61.6-49.6,76c-3.2,1.6-5.6,5.6-5.6,8.8c0,4,3.2,7.2,7.2,8
			c64,16,110.4,68.8,114.4,129.6H66.8z"/>
	</g>
</g>
<g>
</g>
<g>
</g>
<g>
</g>
<g>
</g>
<g>
</g>
<g>
</g>
<g>
</g>
<g>
</g>
<g>
</g>
<g>
</g>
<g>
</g>
<g>
</g>
<g>
</g>
<g>
</g>
<g>
</g>
</svg>
