<?xml version="1.0" encoding="utf-8"?>
<!-- Generator: Adobe Illustrator 24.0.1, SVG Export Plug-In . SVG Version: 6.00 Build 0)  -->
<svg version="1.1" id="Capa_1" xmlns="http://www.w3.org/2000/svg" xmlns:xlink="http://www.w3.org/1999/xlink" x="0px" y="0px"
	 viewBox="0 0 433.6 433.6" style="enable-background:new 0 0 433.6 433.6;" xml:space="preserve">
<g>
	<g>
		<g>
			<path d="M388.7,47c-0.9,0-1.8,0-2.7,0h-33.4V18.3c0-11.5-11-18.3-22.5-18.3h-30.8c-11.5,0-19.9,6.8-19.9,18.3V47H154.1V18.3
				c0-11.5-8.4-18.3-19.9-18.3h-30.8C92,0,81,6.8,81,18.3V47H47.5C26.2,46.4,8.4,63.2,7.8,84.6c0,0.9,0,1.8,0,2.7v302
				c0,23,16.7,44.4,39.7,44.4h338.5c23,0,39.7-21.4,39.7-44.4v-302C426.7,65.9,410.1,47.9,388.7,47z M299.4,20.9h32.4v57.5h-32.4
				V20.9z M103.4,20.9h29.8v57.5h-29.8C103.4,78.4,103.4,20.9,103.4,20.9z M404.9,389.2c0,11.5-7.3,23.5-18.8,23.5H47.5
				c-11.5,0-18.8-12-18.8-23.5v-222h376.2L404.9,389.2L404.9,389.2z M404.9,87.2v59H28.7v-59c-0.9-9.8,6.3-18.4,16.1-19.3
				c0.9-0.1,1.8-0.1,2.7,0H81v11.5c0,11.5,11,19.9,22.5,19.9h30.8c10.7,0.3,19.6-8.1,19.9-18.8c0-0.4,0-0.7,0-1.1V67.9h125.4v11.5
				c-0.3,10.7,8.1,19.6,18.8,19.9c0.4,0,0.7,0,1.1,0h30.8c11.5,0,22.5-8.4,22.5-19.9V67.9h33.4c9.8-0.6,18.2,6.8,18.8,16.6
				C405,85.4,405,86.3,404.9,87.2z"/>
		</g>
	</g>
</g>
</svg>
